<svg id="svg" version="1.1" xmlns="http://www.w3.org/2000/svg" xmlns:xlink="http://www.w3.org/1999/xlink" width="400" height="282.18694885361555" viewBox="0, 0, 400,282.18694885361555"><g id="svgg"><path id="path0" d="M159.536 30.397 L 158.843 30.984 160.795 34.319 C 169.671 49.485,170.353 55.730,164.906 71.958 C 161.846 81.072,161.539 84.424,163.383 88.594 C 164.040 90.080,163.808 90.258,162.393 89.353 C 151.427 82.347,134.088 85.526,122.696 96.631 L 120.789 98.490 121.902 98.866 C 128.046 100.940,131.479 105.608,130.251 110.221 C 129.699 112.295,128.003 114.925,127.459 114.550 C 120.582 109.808,117.705 108.843,111.046 109.047 C 87.293 109.773,71.300 137.540,84.106 155.820 C 90.254 164.597,101.758 170.504,112.787 170.548 C 114.943 170.556,115.928 170.912,116.301 171.820 C 116.928 173.345,117.441 188.233,117.041 193.314 C 114.993 219.338,128.083 239.348,151.873 246.557 C 179.141 254.820,210.509 254.197,228.813 245.029 C 245.063 236.889,254.350 223.292,262.964 195.030 C 263.653 192.768,264.499 190.108,264.844 189.120 L 265.471 187.323 266.466 187.773 C 277.847 192.915,291.006 192.351,303.278 186.192 C 315.501 180.059,321.747 168.013,320.274 153.414 C 317.769 128.569,292.207 111.004,272.332 120.469 C 271.325 120.948,270.412 121.339,270.304 121.337 C 269.573 121.322,261.053 107.618,259.648 104.195 C 257.293 98.461,256.695 95.420,256.732 89.372 C 256.754 85.978,256.706 84.511,256.577 84.591 C 256.475 84.654,253.564 86.740,250.109 89.226 C 246.654 91.712,243.575 93.925,243.266 94.143 L 242.704 94.540 242.234 92.993 C 237.621 77.838,219.537 54.843,207.853 49.275 C 206.982 48.861,206.246 48.545,206.217 48.574 C 206.189 48.603,207.343 51.008,208.783 53.919 C 213.788 64.041,215.992 70.619,216.178 76.000 L 216.267 78.544 215.717 78.196 C 215.323 77.946,214.712 77.028,213.555 74.947 C 207.957 64.876,201.793 56.645,194.248 49.165 C 188.619 43.584,186.663 42.349,182.472 41.726 C 178.602 41.151,176.057 39.935,172.165 36.800 C 169.765 34.867,168.753 34.126,165.534 31.946 L 162.374 29.806 161.302 29.809 C 160.345 29.811,160.154 29.875,159.536 30.397 M128.942 129.720 C 138.856 130.652,142.193 131.086,147.090 132.081 C 161.657 135.041,173.637 139.742,184.514 146.768 C 190.619 150.711,195.408 151.813,202.416 150.889 C 219.106 148.688,246.405 153.869,263.316 162.447 C 267.357 164.497,267.305 164.368,265.948 169.048 C 265.554 170.406,265.078 172.047,264.890 172.695 C 264.668 173.459,264.361 174.060,264.019 174.402 C 263.514 174.907,263.293 174.982,261.051 175.419 C 259.896 175.644,258.510 177.695,255.644 183.423 C 246.139 202.417,240.489 205.807,223.175 202.905 C 205.195 199.893,197.107 192.461,195.854 177.802 C 195.430 172.837,194.367 163.676,194.082 162.522 C 193.154 158.768,188.794 157.711,186.232 160.619 C 185.477 161.477,180.441 169.115,178.301 172.648 C 170.887 184.888,162.659 188.144,147.795 184.722 C 133.729 181.483,127.907 178.129,124.536 171.321 C 122.469 167.148,122.058 164.224,122.040 153.527 C 122.020 142.428,121.961 142.137,119.406 140.507 C 118.298 139.800,118.289 139.167,119.312 133.333 C 120.152 128.541,119.399 128.824,128.942 129.720 M123.202 134.769 C 124.505 136.967,127.495 137.875,129.698 136.740 L 130.383 136.387 127.052 135.559 C 125.220 135.103,123.573 134.685,123.391 134.630 C 123.146 134.556,123.097 134.592,123.202 134.769 M135.450 137.533 C 129.403 139.114,126.687 149.089,128.237 164.021 C 128.852 169.940,131.237 172.999,137.654 176.102 C 147.732 180.975,158.296 181.963,164.991 178.660 C 169.237 176.565,171.579 173.889,174.858 167.379 C 180.897 155.394,181.123 151.706,176.020 148.404 C 174.218 147.239,167.708 144.072,164.645 142.871 C 155.548 139.304,139.735 136.413,135.450 137.533 M211.199 156.011 C 210.908 156.050,209.963 156.171,209.098 156.279 C 204.166 156.898,202.503 158.626,202.029 163.625 C 199.722 187.973,203.116 193.009,225.124 197.888 C 230.614 199.105,230.094 199.031,230.203 198.613 C 230.281 198.316,230.550 198.276,233.002 198.188 C 238.700 197.986,241.137 196.562,244.514 191.465 C 251.586 180.787,254.258 170.318,250.971 166.160 C 246.886 160.991,221.805 154.591,211.199 156.011 " stroke="none" fill="#fbfbfb" fill-rule="evenodd"></path><path id="path1" d="M0.176 141.093 L 0.176 282.187 200.000 282.187 L 399.824 282.187 399.824 141.093 L 399.824 0.000 200.000 0.000 L 0.176 0.000 0.176 141.093 M165.847 32.064 C 167.801 33.403,170.472 35.353,171.781 36.399 C 175.951 39.727,178.600 41.042,182.178 41.563 C 186.663 42.215,188.529 43.384,194.369 49.206 C 202.261 57.072,209.006 66.150,214.181 75.866 C 214.732 76.901,215.372 77.871,215.604 78.023 L 216.025 78.299 216.148 77.315 C 216.694 72.943,213.843 64.197,208.178 52.866 C 206.753 50.017,206.082 48.501,206.244 48.501 C 206.741 48.501,210.023 50.276,211.650 51.424 C 223.616 59.870,238.501 80.038,242.328 92.989 C 242.550 93.741,242.760 94.356,242.793 94.356 C 242.826 94.356,245.992 92.094,249.828 89.330 C 253.664 86.565,256.825 84.303,256.851 84.303 C 256.878 84.303,256.895 86.625,256.889 89.462 C 256.869 99.218,258.578 103.885,266.541 115.813 L 270.210 121.309 271.904 120.517 C 281.459 116.052,291.108 116.907,301.411 123.132 C 323.496 136.476,327.335 168.920,308.503 183.066 C 296.924 191.763,280.429 193.761,266.994 188.095 C 266.189 187.756,265.515 187.478,265.495 187.478 C 265.454 187.478,263.971 192.101,262.440 197.002 C 254.380 222.814,245.439 236.052,230.511 244.276 C 212.778 254.045,181.915 255.203,153.616 247.163 C 128.970 240.160,115.045 220.335,116.811 194.765 C 117.200 189.145,117.189 185.976,116.756 178.451 C 116.305 170.619,116.351 170.725,113.404 170.724 C 94.167 170.713,77.770 155.389,79.530 139.065 C 82.071 115.489,108.512 100.899,125.987 113.429 C 127.624 114.603,127.730 114.652,127.978 114.345 C 132.719 108.462,130.129 101.882,121.914 98.937 C 120.541 98.445,120.515 98.571,122.354 96.805 C 134.298 85.336,151.333 82.165,162.529 89.326 C 163.696 90.073,163.822 89.919,163.239 88.460 C 161.367 83.781,161.673 81.052,165.226 70.723 C 170.218 56.216,169.284 48.842,160.595 34.148 C 158.397 30.431,158.561 31.043,159.553 30.271 C 161.139 29.035,161.628 29.174,165.847 32.064 M120.676 129.550 C 120.073 129.973,119.954 130.317,119.483 133.020 C 118.282 139.909,118.279 139.843,119.826 140.717 C 121.113 141.443,121.727 142.373,121.952 143.936 C 122.014 144.361,122.134 148.995,122.220 154.233 C 122.409 165.701,122.601 167.109,124.512 171.052 C 127.129 176.451,131.305 179.705,138.713 182.119 C 156.284 187.844,165.924 187.022,173.472 179.154 C 175.184 177.370,175.994 176.247,178.353 172.388 C 186.041 159.813,187.731 158.070,191.223 159.116 C 194.049 159.963,194.594 162.086,195.943 177.513 C 196.810 187.423,199.635 192.671,206.453 197.037 C 213.676 201.661,229.312 204.853,236.949 203.261 C 244.577 201.670,248.649 197.240,255.997 182.540 C 258.000 178.532,258.799 177.225,259.859 176.223 C 260.822 175.311,260.991 175.236,262.477 175.043 C 264.149 174.826,264.331 174.514,265.772 169.392 C 267.161 164.452,267.187 164.526,263.374 162.568 C 246.563 153.931,219.304 148.826,201.947 151.062 C 195.258 151.924,190.548 150.771,184.303 146.743 C 171.449 138.452,155.204 132.811,138.360 130.788 C 129.284 129.699,121.265 129.138,120.676 129.550 M126.683 135.365 C 130.898 136.411,130.776 136.351,129.646 136.837 C 127.228 137.877,124.782 137.206,123.274 135.088 C 122.782 134.398,122.786 134.398,126.683 135.365 M144.440 137.740 C 155.636 139.477,162.799 141.589,170.811 145.514 C 180.408 150.215,181.384 152.215,178.123 160.495 C 171.189 178.103,163.501 183.104,148.331 179.874 C 137.607 177.590,130.645 173.153,128.772 167.410 C 127.850 164.584,127.388 157.010,127.876 152.737 C 129.538 138.191,132.143 135.833,144.440 137.740 M219.312 155.917 C 230.850 156.908,246.179 161.589,250.260 165.368 C 253.115 168.012,253.299 171.585,250.943 178.686 C 249.443 183.206,247.490 187.167,244.651 191.446 C 241.255 196.565,238.599 198.122,232.862 198.360 C 230.581 198.454,230.355 198.493,230.273 198.807 C 230.212 199.040,230.081 199.120,229.862 199.055 C 229.686 199.003,227.875 198.595,225.838 198.148 C 209.500 194.564,204.190 191.087,201.997 182.542 C 200.961 178.504,201.295 163.583,202.494 160.380 C 203.901 156.620,209.670 155.089,219.312 155.917 " stroke="none" fill="#2c4c8c" fill-rule="evenodd"></path><path id="path2" d="M0.088 141.093 C 0.088 218.743,0.108 250.509,0.132 211.684 C 0.157 172.859,0.157 109.328,0.132 70.503 C 0.108 31.678,0.088 63.444,0.088 141.093 M399.911 141.093 C 399.911 218.743,399.931 250.509,399.956 211.684 C 399.980 172.859,399.980 109.328,399.956 70.503 C 399.931 31.678,399.911 63.444,399.911 141.093 M256.831 85.009 C 256.831 85.348,256.867 85.487,256.912 85.317 C 256.956 85.148,256.956 84.870,256.912 84.700 C 256.867 84.530,256.831 84.669,256.831 85.009 M256.667 89.947 C 256.667 90.481,256.700 90.699,256.740 90.432 C 256.780 90.165,256.780 89.729,256.740 89.462 C 256.700 89.195,256.667 89.414,256.667 89.947 M256.662 91.887 C 256.662 92.324,256.696 92.502,256.738 92.284 C 256.780 92.066,256.780 91.709,256.738 91.490 C 256.696 91.272,256.662 91.451,256.662 91.887 M283.466 117.763 C 283.732 117.803,284.169 117.803,284.436 117.763 C 284.702 117.723,284.484 117.690,283.951 117.690 C 283.417 117.690,283.199 117.723,283.466 117.763 M137.965 137.164 C 138.233 137.204,138.630 137.203,138.847 137.161 C 139.064 137.119,138.845 137.086,138.360 137.087 C 137.875 137.089,137.697 137.123,137.965 137.164 M79.418 141.623 C 79.418 142.156,79.451 142.374,79.491 142.108 C 79.532 141.841,79.532 141.404,79.491 141.138 C 79.451 140.871,79.418 141.089,79.418 141.623 M122.114 155.203 C 122.114 156.415,122.142 156.911,122.176 156.305 C 122.211 155.699,122.211 154.707,122.176 154.101 C 122.142 153.494,122.114 153.990,122.114 155.203 M214.160 155.862 C 214.721 155.898,215.594 155.897,216.100 155.862 C 216.606 155.826,216.146 155.797,215.079 155.798 C 214.012 155.798,213.599 155.827,214.160 155.862 M320.513 157.407 C 320.514 157.989,320.547 158.206,320.586 157.889 C 320.626 157.572,320.625 157.096,320.585 156.831 C 320.544 156.566,320.512 156.825,320.513 157.407 M112.654 170.674 C 112.970 170.713,113.485 170.713,113.801 170.674 C 114.116 170.635,113.858 170.603,113.228 170.603 C 112.597 170.603,112.339 170.635,112.654 170.674 M154.632 180.724 C 154.851 180.767,155.169 180.765,155.337 180.721 C 155.506 180.677,155.326 180.642,154.938 180.644 C 154.550 180.646,154.412 180.682,154.632 180.724 M156.395 180.724 C 156.615 180.767,156.932 180.765,157.101 180.721 C 157.269 180.677,157.090 180.642,156.702 180.644 C 156.314 180.646,156.176 180.682,156.395 180.724 M117.162 186.684 C 117.163 187.266,117.196 187.483,117.235 187.166 C 117.275 186.849,117.274 186.373,117.234 186.108 C 117.193 185.843,117.161 186.102,117.162 186.684 M156.570 186.020 C 156.982 186.057,157.657 186.057,158.069 186.020 C 158.481 185.983,158.144 185.952,157.319 185.952 C 156.495 185.952,156.157 185.983,156.570 186.020 M117.149 189.771 C 117.149 190.110,117.185 190.249,117.229 190.079 C 117.274 189.910,117.274 189.632,117.229 189.462 C 117.185 189.292,117.149 189.431,117.149 189.771 M116.641 199.206 C 116.641 200.079,116.670 200.459,116.707 200.049 C 116.744 199.640,116.745 198.926,116.708 198.462 C 116.672 197.998,116.642 198.333,116.641 199.206 M232.848 198.358 C 233.018 198.402,233.296 198.402,233.466 198.358 C 233.635 198.314,233.496 198.277,233.157 198.277 C 232.817 198.277,232.679 198.314,232.848 198.358 " stroke="none" fill="#94a4c4" fill-rule="evenodd"></path><path id="path3" d="M193.386 48.325 C 193.765 48.713,194.115 49.030,194.163 49.030 C 194.212 49.030,193.941 48.713,193.563 48.325 C 193.184 47.937,192.834 47.619,192.786 47.619 C 192.737 47.619,193.007 47.937,193.386 48.325 M195.679 50.617 C 196.058 51.005,196.408 51.323,196.456 51.323 C 196.505 51.323,196.234 51.005,195.855 50.617 C 195.477 50.229,195.127 49.912,195.078 49.912 C 195.030 49.912,195.300 50.229,195.679 50.617 M256.655 88.536 C 256.655 88.876,256.691 89.015,256.735 88.845 C 256.780 88.675,256.780 88.397,256.735 88.228 C 256.691 88.058,256.655 88.197,256.655 88.536 M121.952 97.222 L 120.899 98.325 122.002 97.272 C 122.608 96.693,123.104 96.197,123.104 96.170 C 123.104 96.039,122.930 96.198,121.952 97.222 M111.599 108.946 C 111.916 108.985,112.392 108.985,112.657 108.944 C 112.922 108.904,112.663 108.872,112.081 108.873 C 111.499 108.874,111.282 108.907,111.599 108.946 M121.920 145.414 C 121.921 145.899,121.956 146.077,121.996 145.809 C 122.037 145.541,122.036 145.144,121.994 144.927 C 121.952 144.710,121.919 144.929,121.920 145.414 M210.362 150.395 C 210.871 150.430,211.704 150.430,212.213 150.395 C 212.723 150.359,212.306 150.330,211.287 150.330 C 210.269 150.330,209.852 150.359,210.362 150.395 M197.483 151.274 C 197.796 151.313,198.351 151.313,198.717 151.275 C 199.083 151.237,198.827 151.205,198.148 151.204 C 197.469 151.203,197.170 151.235,197.483 151.274 M122.112 159.171 C 122.112 160.238,122.141 160.652,122.176 160.091 C 122.211 159.529,122.211 158.656,122.176 158.151 C 122.140 157.645,122.111 158.104,122.112 159.171 M87.213 159.612 C 87.691 160.097,88.122 160.494,88.170 160.494 C 88.219 160.494,87.867 160.097,87.390 159.612 C 86.912 159.127,86.482 158.730,86.433 158.730 C 86.385 158.730,86.736 159.127,87.213 159.612 M201.455 171.340 C 201.457 171.728,201.493 171.866,201.536 171.647 C 201.578 171.428,201.576 171.110,201.532 170.942 C 201.488 170.773,201.453 170.952,201.455 171.340 M131.746 172.399 C 132.075 172.738,132.384 173.016,132.433 173.016 C 132.481 173.016,132.251 172.738,131.922 172.399 C 131.593 172.059,131.284 171.781,131.236 171.781 C 131.187 171.781,131.417 172.059,131.746 172.399 M173.097 179.586 L 172.222 180.511 173.148 179.636 C 174.009 178.823,174.155 178.660,174.023 178.660 C 173.995 178.660,173.579 179.076,173.097 179.586 M117.152 185.097 C 117.154 185.485,117.190 185.623,117.232 185.404 C 117.275 185.184,117.273 184.867,117.229 184.698 C 117.185 184.529,117.150 184.709,117.152 185.097 M280.467 191.303 C 280.637 191.348,280.915 191.348,281.085 191.303 C 281.254 191.259,281.116 191.223,280.776 191.223 C 280.437 191.223,280.298 191.259,280.467 191.303 M284.347 191.303 C 284.517 191.348,284.795 191.348,284.965 191.303 C 285.134 191.259,284.996 191.223,284.656 191.223 C 284.317 191.223,284.178 191.259,284.347 191.303 M246.112 198.457 L 245.414 199.206 246.164 198.509 C 246.861 197.861,246.995 197.707,246.861 197.707 C 246.832 197.707,246.495 198.045,246.112 198.457 M231.526 198.361 C 231.744 198.403,232.101 198.403,232.319 198.361 C 232.537 198.319,232.359 198.284,231.922 198.284 C 231.486 198.284,231.307 198.319,231.526 198.361 M231.175 203.828 C 231.394 203.871,231.712 203.869,231.880 203.825 C 232.049 203.781,231.869 203.746,231.481 203.748 C 231.093 203.750,230.956 203.786,231.175 203.828 M232.939 203.828 C 233.158 203.871,233.475 203.869,233.644 203.825 C 233.813 203.781,233.633 203.746,233.245 203.748 C 232.857 203.750,232.719 203.786,232.939 203.828 M130.511 234.127 C 131.038 234.660,131.509 235.097,131.558 235.097 C 131.606 235.097,131.215 234.660,130.688 234.127 C 130.161 233.593,129.690 233.157,129.642 233.157 C 129.593 233.157,129.985 233.593,130.511 234.127 M185.672 252.329 C 185.892 252.372,186.209 252.370,186.378 252.326 C 186.546 252.282,186.367 252.247,185.979 252.249 C 185.591 252.251,185.453 252.287,185.672 252.329 M194.843 252.329 C 195.063 252.372,195.380 252.370,195.549 252.326 C 195.717 252.282,195.538 252.247,195.150 252.249 C 194.762 252.251,194.624 252.287,194.843 252.329 " stroke="none" fill="#a4b4cc" fill-rule="evenodd"></path><path id="path4" d="M160.802 29.757 C 161.118 29.796,161.634 29.796,161.949 29.757 C 162.264 29.718,162.006 29.686,161.376 29.686 C 160.745 29.686,160.487 29.718,160.802 29.757 M168.309 56.349 C 168.310 56.931,168.343 57.148,168.382 56.831 C 168.421 56.514,168.420 56.038,168.380 55.773 C 168.340 55.508,168.308 55.767,168.309 56.349 M162.138 83.069 C 162.138 83.699,162.170 83.957,162.209 83.642 C 162.248 83.327,162.248 82.811,162.209 82.496 C 162.170 82.180,162.138 82.438,162.138 83.069 M148.721 85.488 C 148.988 85.528,149.425 85.528,149.691 85.488 C 149.958 85.447,149.740 85.414,149.206 85.414 C 148.673 85.414,148.455 85.447,148.721 85.488 M256.835 86.155 C 256.837 86.543,256.873 86.681,256.915 86.462 C 256.957 86.242,256.955 85.925,256.911 85.756 C 256.867 85.588,256.833 85.767,256.835 86.155 M122.112 151.235 C 122.112 152.302,122.141 152.715,122.176 152.154 C 122.211 151.593,122.211 150.720,122.176 150.214 C 122.140 149.708,122.111 150.168,122.112 151.235 M214.859 150.562 C 215.029 150.607,215.306 150.607,215.476 150.562 C 215.646 150.518,215.507 150.482,215.168 150.482 C 214.828 150.482,214.689 150.518,214.859 150.562 M320.499 155.908 C 320.499 156.248,320.536 156.387,320.580 156.217 C 320.624 156.047,320.624 155.769,320.580 155.600 C 320.536 155.430,320.499 155.569,320.499 155.908 M217.152 155.853 C 217.321 155.898,217.599 155.898,217.769 155.853 C 217.939 155.809,217.800 155.773,217.460 155.773 C 217.121 155.773,216.982 155.809,217.152 155.853 M320.499 158.907 C 320.499 159.246,320.536 159.385,320.580 159.215 C 320.624 159.045,320.624 158.768,320.580 158.598 C 320.536 158.428,320.499 158.567,320.499 158.907 M111.332 170.668 C 111.501 170.713,111.779 170.713,111.949 170.668 C 112.119 170.624,111.980 170.588,111.640 170.588 C 111.301 170.588,111.162 170.624,111.332 170.668 M201.295 175.397 C 201.296 176.173,201.327 176.468,201.364 176.054 C 201.401 175.639,201.401 175.004,201.363 174.643 C 201.325 174.281,201.294 174.621,201.295 175.397 M117.158 188.448 C 117.159 188.933,117.194 189.110,117.234 188.842 C 117.275 188.574,117.274 188.177,117.232 187.961 C 117.190 187.744,117.157 187.963,117.158 188.448 M116.619 201.235 C 116.619 201.574,116.656 201.713,116.700 201.543 C 116.744 201.373,116.744 201.096,116.700 200.926 C 116.656 200.756,116.619 200.895,116.619 201.235 M189.557 252.512 C 190.167 252.546,191.120 252.546,191.674 252.511 C 192.228 252.476,191.728 252.448,190.564 252.448 C 189.400 252.449,188.947 252.477,189.557 252.512 " stroke="none" fill="#8494bc" fill-rule="evenodd"></path></g></svg>